<mxfile host="Electron" modified="2024-02-13T23:39:44.854Z" agent="Mozilla/5.0 (Macintosh; Intel Mac OS X 10_15_7) AppleWebKit/537.36 (KHTML, like Gecko) draw.io/23.0.2 Chrome/120.0.6099.109 Electron/28.1.0 Safari/537.36" etag="866Fd2Frf6kRbrCfOdoE" version="23.0.2" type="device">
  <diagram name="Page-1" id="YL9ElTxx-yhKCivAXaX9">
    <mxGraphModel dx="1022" dy="824" grid="1" gridSize="10" guides="1" tooltips="1" connect="1" arrows="1" fold="1" page="1" pageScale="1" pageWidth="827" pageHeight="1169" math="0" shadow="0">
      <root>
        <mxCell id="0" />
        <mxCell id="1" parent="0" />
        <mxCell id="N3HGTZ8TXQ3P7YX5mMqY-3" value="AWS Cloud" style="points=[[0,0],[0.25,0],[0.5,0],[0.75,0],[1,0],[1,0.25],[1,0.5],[1,0.75],[1,1],[0.75,1],[0.5,1],[0.25,1],[0,1],[0,0.75],[0,0.5],[0,0.25]];outlineConnect=0;gradientColor=none;html=1;whiteSpace=wrap;fontSize=12;fontStyle=0;container=1;pointerEvents=0;collapsible=0;recursiveResize=0;shape=mxgraph.aws4.group;grIcon=mxgraph.aws4.group_aws_cloud_alt;strokeColor=#232F3E;fillColor=none;verticalAlign=top;align=left;spacingLeft=30;fontColor=#232F3E;dashed=0;" vertex="1" parent="1">
          <mxGeometry x="200" y="350" width="330" height="260" as="geometry" />
        </mxCell>
        <mxCell id="N3HGTZ8TXQ3P7YX5mMqY-1" value="" style="sketch=0;points=[[0,0,0],[0.25,0,0],[0.5,0,0],[0.75,0,0],[1,0,0],[0,1,0],[0.25,1,0],[0.5,1,0],[0.75,1,0],[1,1,0],[0,0.25,0],[0,0.5,0],[0,0.75,0],[1,0.25,0],[1,0.5,0],[1,0.75,0]];outlineConnect=0;fontColor=#232F3E;fillColor=#7AA116;strokeColor=#ffffff;dashed=0;verticalLabelPosition=bottom;verticalAlign=top;align=center;html=1;fontSize=12;fontStyle=0;aspect=fixed;shape=mxgraph.aws4.resourceIcon;resIcon=mxgraph.aws4.s3;" vertex="1" parent="N3HGTZ8TXQ3P7YX5mMqY-3">
          <mxGeometry x="70" y="91" width="78" height="78" as="geometry" />
        </mxCell>
        <mxCell id="N3HGTZ8TXQ3P7YX5mMqY-4" value="" style="edgeStyle=orthogonalEdgeStyle;rounded=0;orthogonalLoop=1;jettySize=auto;html=1;" edge="1" parent="N3HGTZ8TXQ3P7YX5mMqY-3" source="N3HGTZ8TXQ3P7YX5mMqY-2" target="N3HGTZ8TXQ3P7YX5mMqY-1">
          <mxGeometry relative="1" as="geometry" />
        </mxCell>
        <mxCell id="N3HGTZ8TXQ3P7YX5mMqY-2" value="" style="sketch=0;outlineConnect=0;fontColor=#232F3E;gradientColor=none;fillColor=#7AA116;strokeColor=none;dashed=0;verticalLabelPosition=bottom;verticalAlign=top;align=center;html=1;fontSize=12;fontStyle=0;aspect=fixed;pointerEvents=1;shape=mxgraph.aws4.object;" vertex="1" parent="N3HGTZ8TXQ3P7YX5mMqY-3">
          <mxGeometry x="200" y="91" width="78" height="78" as="geometry" />
        </mxCell>
        <mxCell id="N3HGTZ8TXQ3P7YX5mMqY-5" value="readme.md" style="text;html=1;strokeColor=none;fillColor=none;align=center;verticalAlign=middle;whiteSpace=wrap;rounded=0;" vertex="1" parent="N3HGTZ8TXQ3P7YX5mMqY-3">
          <mxGeometry x="209" y="180" width="60" height="30" as="geometry" />
        </mxCell>
        <mxCell id="N3HGTZ8TXQ3P7YX5mMqY-6" value="name-region-accountid" style="text;html=1;strokeColor=none;fillColor=none;align=center;verticalAlign=middle;whiteSpace=wrap;rounded=0;" vertex="1" parent="N3HGTZ8TXQ3P7YX5mMqY-3">
          <mxGeometry x="43.5" y="180" width="131" height="30" as="geometry" />
        </mxCell>
      </root>
    </mxGraphModel>
  </diagram>
</mxfile>
